<svg width="46" height="38" viewBox="0 0 46 38" fill="none" xmlns="http://www.w3.org/2000/svg">
<path d="M23 8.94116C20.7255 8.94116 18.5021 9.59665 16.6109 10.8247C14.7198 12.0528 13.2458 13.7984 12.3754 15.8406C11.505 17.8828 11.2772 20.13 11.721 22.2981C12.1647 24.4661 13.26 26.4575 14.8683 28.0206C16.4766 29.5836 18.5257 30.6481 20.7565 31.0794C22.9872 31.5106 25.2995 31.2893 27.4009 30.4433C29.5022 29.5974 31.2983 28.1649 32.5619 26.3269C33.8255 24.489 34.5 22.3281 34.5 20.1176C34.5 17.1534 33.2884 14.3107 31.1317 12.2147C28.9751 10.1187 26.05 8.94116 23 8.94116ZM23 29.0588C21.1804 29.0588 19.4017 28.5344 17.8888 27.5519C16.3758 26.5695 15.1966 25.1731 14.5003 23.5393C13.804 21.9055 13.6218 20.1077 13.9768 18.3733C14.3318 16.6389 15.208 15.0457 16.4946 13.7953C17.7813 12.5448 19.4205 11.6933 21.2052 11.3483C22.9898 11.0033 24.8396 11.1803 26.5207 11.8571C28.2018 12.5338 29.6386 13.6798 30.6495 15.1502C31.6604 16.6206 32.2 18.3492 32.2 20.1176C32.2 22.489 31.2307 24.7632 29.5054 26.44C27.78 28.1168 25.44 29.0588 23 29.0588Z" fill="white"/>
<path d="M37.95 4.47059H32.913L31.9585 2.61529C31.521 1.85495 30.8911 1.21569 30.1284 0.758031C29.3657 0.300374 28.4954 0.039464 27.6 0H18.4C17.5046 0.039464 16.6343 0.300374 15.8716 0.758031C15.1089 1.21569 14.479 1.85495 14.0415 2.61529L13.087 4.47059H8.05C5.91501 4.47059 3.86746 5.29485 2.35779 6.76205C0.848123 8.22924 0 10.2192 0 12.2941V30.1765C0 32.2514 0.848123 34.2413 2.35779 35.7085C3.86746 37.1757 5.91501 38 8.05 38H37.95C40.085 38 42.1325 37.1757 43.6422 35.7085C45.1519 34.2413 46 32.2514 46 30.1765V12.2941C46 10.2192 45.1519 8.22924 43.6422 6.76205C42.1325 5.29485 40.085 4.47059 37.95 4.47059ZM43.7 30.1765C43.7 31.6586 43.0942 33.08 42.0159 34.1279C40.9375 35.1759 39.475 35.7647 37.95 35.7647H8.05C6.52501 35.7647 5.06247 35.1759 3.98414 34.1279C2.9058 33.08 2.3 31.6586 2.3 30.1765V12.2941C2.3 10.812 2.9058 9.39064 3.98414 8.34264C5.06247 7.29464 6.52501 6.70588 8.05 6.70588H13.8C14.0124 6.70526 14.2204 6.64749 14.4011 6.53899C14.5817 6.43049 14.7279 6.27549 14.8235 6.09118L16.1 3.62118C16.3414 3.22825 16.6762 2.89732 17.0764 2.65617C17.4766 2.41503 17.9305 2.2707 18.4 2.23529H27.6C28.0695 2.2707 28.5234 2.41503 28.9236 2.65617C29.3238 2.89732 29.6586 3.22825 29.9 3.62118L31.1765 6.09118C31.2721 6.27549 31.4183 6.43049 31.5989 6.53899C31.7796 6.64749 31.9876 6.70526 32.2 6.70588H37.95C39.475 6.70588 40.9375 7.29464 42.0159 8.34264C43.0942 9.39064 43.7 10.812 43.7 12.2941V30.1765Z" fill="white"/>
</svg>
