<svg width="52" height="26" viewBox="0 0 52 26" fill="none" xmlns="http://www.w3.org/2000/svg">
<path d="M2.97143 22.3889H7.42857V23.1111C7.42857 24.7043 8.76126 26 10.4 26H14.8571C16.4959 26 17.8286 24.7043 17.8286 23.1111V17.3333H34.1714V23.1111C34.1714 24.7043 35.5041 26 37.1429 26H41.6C43.2387 26 44.5714 24.7043 44.5714 23.1111V22.3889H49.0286C50.6673 22.3889 52 21.0932 52 19.5V6.5C52 4.90678 50.6673 3.61111 49.0286 3.61111H44.5714V2.88889C44.5714 1.29567 43.2387 0 41.6 0H37.1429C35.5041 0 34.1714 1.29567 34.1714 2.88889V8.66667H17.8286V2.88889C17.8286 1.29567 16.4959 0 14.8571 0H10.4C8.76126 0 7.42857 1.29567 7.42857 2.88889V3.61111H2.97143C1.33269 3.61111 0 4.90678 0 6.5V19.5C0 21.0932 1.33269 22.3889 2.97143 22.3889ZM49.0286 6.5V19.5H44.5714V6.5H49.0286ZM37.1429 2.88889H41.6V23.1111H37.1429V2.88889ZM33.9857 11.5556V14.4444H17.8286V11.5556H33.9857ZM10.4 2.88889H14.8571V17.3333H14.8586V23.1111H10.4V2.88889ZM2.97143 6.5H7.42857V19.5H2.97143V6.5Z" fill="white"/>
</svg>
