<svg width="30" height="39" viewBox="0 0 30 39" fill="none" xmlns="http://www.w3.org/2000/svg">
<path d="M19.2857 35.1H10.7143L6.42857 39H0L4.28571 35.1C1.91786 35.1 0 33.3548 0 31.2V3.9C0 1.755 1.92857 0 4.28571 0H25.7143C28.0821 0 30 1.74525 30 3.9V31.2C30 33.3548 28.0821 35.1 25.7143 35.1L30 39H23.5714L19.2857 35.1ZM4.28571 9.75V21.45H25.7143V9.75H4.28571ZM7.5 31.2C9.27429 31.2 10.7143 29.8896 10.7143 28.275C10.7143 26.6604 9.27429 25.35 7.5 25.35C5.72571 25.35 4.28571 26.6604 4.28571 28.275C4.28571 29.8896 5.72571 31.2 7.5 31.2ZM22.5 31.2C24.2743 31.2 25.7143 29.8896 25.7143 28.275C25.7143 26.6604 24.2743 25.35 22.5 25.35C20.7257 25.35 19.2857 26.6604 19.2857 28.275C19.2857 29.8896 20.7257 31.2 22.5 31.2ZM10.7143 3.9V5.85H19.2857V3.9H10.7143Z" fill="#FFF9F9"/>
</svg>
