<svg width="34" height="30" viewBox="0 0 34 30" fill="none" xmlns="http://www.w3.org/2000/svg">
<path fill-rule="evenodd" clip-rule="evenodd" d="M18.6667 26.6667V24.8819C21.9725 24.409 24.8313 22.5503 26.6356 19.9131C31.159 19.2898 33.6667 15.3714 33.6667 10V5C33.6667 3.15905 32.1743 1.66667 30.3333 1.66667H28.2207C27.6444 0.670331 26.5671 0 25.3333 0H8.66667C7.43287 0 6.35563 0.670331 5.77928 1.66667H3.66667C1.82572 1.66667 0.333336 3.15905 0.333336 5V10C0.333336 15.3714 2.84098 19.2898 7.36443 19.9131C9.16873 22.5503 12.0275 24.409 15.3333 24.8819V26.6667H13.6667C11.8257 26.6667 10.3333 28.159 10.3333 30H23.6667C23.6667 28.159 22.1743 26.6667 20.3333 26.6667H18.6667ZM3.66667 5H5.33334V13.3333C5.33334 14.0963 5.40657 14.8421 5.54638 15.5641C4.31713 14.4577 3.66667 12.5521 3.66667 10V5ZM28.6667 5V13.3333C28.6667 14.0963 28.5934 14.8421 28.4536 15.5642C29.6829 14.4577 30.3333 12.5521 30.3333 10V5H28.6667ZM8.66667 13.3333V3.33333H25.3333V13.3333C25.3333 17.9357 21.6024 21.6667 17 21.6667C12.3976 21.6667 8.66667 17.9357 8.66667 13.3333Z" fill="white"/>
</svg>
