<svg width="39" height="39" viewBox="0 0 39 39" fill="none" xmlns="http://www.w3.org/2000/svg">
<rect width="39" height="39" rx="19.5" fill="#2E363E"/>
<path d="M24.3028 21.2696C23.7938 20.7671 23.1584 20.7671 22.6526 21.2696C22.2668 21.6521 21.8811 22.0347 21.5017 22.4237C21.398 22.5307 21.3105 22.5534 21.184 22.4821C20.9344 22.3459 20.6686 22.2357 20.4287 22.0866C19.3102 21.3831 18.3733 20.4786 17.5433 19.4607C17.1316 18.9549 16.7653 18.4135 16.5092 17.8041C16.4573 17.6809 16.467 17.5998 16.5675 17.4993C16.9533 17.1265 17.3294 16.744 17.7087 16.3614C18.2371 15.8298 18.2371 15.2073 17.7054 14.6724C17.4039 14.3677 17.1024 14.0695 16.8009 13.7647C16.4897 13.4535 16.1817 13.139 15.8673 12.8311C15.3583 12.3351 14.7229 12.3351 14.2171 12.8343C13.8281 13.2169 13.4553 13.6091 13.0597 13.9852C12.6934 14.332 12.5086 14.7567 12.4697 15.2527C12.4081 16.06 12.6059 16.8218 12.8847 17.5642C13.4553 19.1008 14.3241 20.4656 15.3777 21.717C16.8009 23.4092 18.4997 24.7481 20.487 25.7142C21.3818 26.1486 22.309 26.4825 23.3172 26.5376C24.011 26.5765 24.614 26.4015 25.0971 25.8601C25.4277 25.4905 25.8006 25.1533 26.1507 24.8C26.6694 24.2748 26.6726 23.6394 26.1572 23.1207C25.5412 22.5015 24.922 21.8856 24.3028 21.2696Z" fill="white"/>
</svg>
